<?xml version="1.0" encoding="UTF-8" standalone="no"?>
<!-- Created with Inkscape (http://www.inkscape.org/) -->

<svg
   xmlns:dc="http://purl.org/dc/elements/1.1/"
   xmlns:cc="http://creativecommons.org/ns#"
   xmlns:rdf="http://www.w3.org/1999/02/22-rdf-syntax-ns#"
   xmlns:svg="http://www.w3.org/2000/svg"
   xmlns="http://www.w3.org/2000/svg"
   xmlns:sodipodi="http://sodipodi.sourceforge.net/DTD/sodipodi-0.dtd"
   xmlns:inkscape="http://www.inkscape.org/namespaces/inkscape"
   width="512"
   height="512"
   viewBox="0 0 135.46666 135.46667"
   version="1.1"
   id="svg8"
   inkscape:version="0.92.2 5c3e80d, 2017-08-06"
   sodipodi:docname="scalaland-logo-red.svg">
  <defs
     id="defs2">
    <inkscape:path-effect
       effect="bspline"
       id="path-effect912"
       is_visible="true"
       weight="33.333333"
       steps="2"
       helper_size="0"
       apply_no_weight="true"
       apply_with_weight="true"
       only_selected="false" />
  </defs>
  <sodipodi:namedview
     id="base"
     pagecolor="#ffffff"
     bordercolor="#666666"
     borderopacity="1.0"
     inkscape:pageopacity="0.0"
     inkscape:pageshadow="2"
     inkscape:zoom="3.7312244"
     inkscape:cx="214.74652"
     inkscape:cy="455.49369"
     inkscape:document-units="px"
     inkscape:current-layer="layer1"
     showgrid="false"
     units="px"
     showguides="true"
     inkscape:guide-bbox="true"
     inkscape:window-width="1920"
     inkscape:window-height="1052"
     inkscape:window-x="1920"
     inkscape:window-y="0"
     inkscape:window-maximized="1">
    <sodipodi:guide
       position="67.733332,67.733332"
       orientation="1,0"
       id="guide815"
       inkscape:locked="false"
       inkscape:label=""
       inkscape:color="rgb(0,0,255)" />
    <sodipodi:guide
       position="-253.60672,135.25693"
       orientation="0,1"
       id="guide902"
       inkscape:locked="false" />
    <sodipodi:guide
       position="-345.94558,0"
       orientation="0,1"
       id="guide904"
       inkscape:locked="false" />
    <sodipodi:guide
       position="0,254.90729"
       orientation="1,0"
       id="guide906"
       inkscape:locked="false" />
    <sodipodi:guide
       position="135.25692,235.39908"
       orientation="1,0"
       id="guide908"
       inkscape:locked="false" />
    <sodipodi:guide
       position="7.3155786,20.158485"
       orientation="0,1"
       id="guide914"
       inkscape:locked="false" />
  </sodipodi:namedview>
  <metadata
     id="metadata5">
    <rdf:RDF>
      <cc:Work
         rdf:about="">
        <dc:format>image/svg+xml</dc:format>
        <dc:type
           rdf:resource="http://purl.org/dc/dcmitype/StillImage" />
        <dc:title></dc:title>
      </cc:Work>
    </rdf:RDF>
  </metadata>
  <g
     inkscape:label="Layer 1"
     inkscape:groupmode="layer"
     id="layer1"
     transform="translate(0,-161.53331)">
    <path
       id="path918-3"
       style="fill:#000000;fill-opacity:1;fill-rule:evenodd;stroke:none;stroke-width:0.26458332px;stroke-linecap:butt;stroke-linejoin:miter;stroke-opacity:1"
       d="m 67.733332,219.61763 39.028108,54.16155 c 1.76883,2.09183 3.81729,2.84367 6.49056,3.06234 h -4.28397 -8.93951 -8.702313 c 2.1147,-0.84469 4.570571,-3.56874 2.978113,-8.01088 L 67.733332,231.64738 Z m 0,26.45781 3.244762,3.90881 3.90829,-3.56361 14.943789,21.15116 c 4.744794,5.96517 -2.249731,9.26972 -6.34328,9.26972 H 67.733332 Z m 0,-26.45782 -39.028107,54.16155 c -1.768827,2.09184 -3.817293,2.84367 -6.49056,3.06235 h 4.283975 8.939506 8.702312 c -2.114701,-0.8447 -4.570571,-3.56875 -2.978113,-8.01089 l 26.570987,-37.18325 z m 0,26.45782 -3.244762,3.9088 -3.90829,-3.56361 -14.943788,21.15117 c -4.744794,5.96516 2.249731,9.26972 6.343279,9.26972 h 15.753561 z" />
    <path
       style="fill:#000000;fill-opacity:1;fill-rule:evenodd;stroke:none;stroke-width:0.26458332px;stroke-linecap:butt;stroke-linejoin:miter;stroke-opacity:1"
       d="m 67.733332,219.61762 c -7.542977,-10.2106 -4.784931,-29.55799 -2.900806,-45.205 -4.262391,14.74522 -11.877837,44.60943 2.900806,57.23476 1.437559,-0.85907 0,-10.58258 0,-12.02976 z"
       id="path1608"
       inkscape:connector-curvature="0"
       sodipodi:nodetypes="cccc" />
    <path
       style="fill:#ff0000;fill-opacity:1;fill-rule:evenodd;stroke:none;stroke-width:0.26458332px;stroke-linecap:butt;stroke-linejoin:miter;stroke-opacity:1"
       d="m 92.153995,175.19003 c -5.2011,4.42096 -20.88947,0.47322 -24.392108,1.54849 -1.733003,0.55069 -1.049249,3.87574 -1.644124,6.74268 3.545497,-5.99802 22.824286,-0.79824 26.036232,-8.29117 z"
       id="path1610-3-5"
       inkscape:connector-curvature="0"
       sodipodi:nodetypes="cccc" />
    <path
       style="fill:#ff0000;fill-opacity:1;fill-rule:evenodd;stroke:none;stroke-width:0.26458332px;stroke-linecap:butt;stroke-linejoin:miter;stroke-opacity:1"
       d="m 91.500036,182.98849 c -5.201101,4.42097 -20.88947,0.47324 -24.392109,1.54851 -1.733003,0.55068 -1.049249,3.87573 -1.644125,6.74266 3.545499,-5.99801 22.824287,-0.79823 26.036234,-8.29117 z"
       id="path1610-3-5-2"
       inkscape:connector-curvature="0"
       sodipodi:nodetypes="cccc" />
    <path
       style="fill:#ff0000;fill-opacity:1;fill-rule:evenodd;stroke:none;stroke-width:0.26458332px;stroke-linecap:butt;stroke-linejoin:miter;stroke-opacity:1"
       d="m 90.846075,190.78695 c -5.201099,4.42097 -20.889469,0.47324 -24.392107,1.54851 -1.733003,0.55068 -1.04925,3.87574 -1.644125,6.74266 3.545497,-5.998 22.824287,-0.79823 26.036232,-8.29117 z"
       id="path1610-3-5-2-2"
       inkscape:connector-curvature="0"
       sodipodi:nodetypes="cccc" />
  </g>
</svg>
