<?xml version="1.0" encoding="UTF-8" standalone="no"?>
<!-- Created with Inkscape (http://www.inkscape.org/) -->

<svg
   xmlns:dc="http://purl.org/dc/elements/1.1/"
   xmlns:cc="http://creativecommons.org/ns#"
   xmlns:rdf="http://www.w3.org/1999/02/22-rdf-syntax-ns#"
   xmlns:svg="http://www.w3.org/2000/svg"
   xmlns="http://www.w3.org/2000/svg"
   xmlns:sodipodi="http://sodipodi.sourceforge.net/DTD/sodipodi-0.dtd"
   xmlns:inkscape="http://www.inkscape.org/namespaces/inkscape"
   width="512"
   height="512"
   viewBox="0 0 135.46666 135.46667"
   version="1.1"
   id="svg8"
   inkscape:version="0.92.2 5c3e80d, 2017-08-06"
   sodipodi:docname="scalaland-logo-white.svg">
  <defs
     id="defs2">
    <inkscape:path-effect
       effect="bspline"
       id="path-effect912"
       is_visible="true"
       weight="33.333333"
       steps="2"
       helper_size="0"
       apply_no_weight="true"
       apply_with_weight="true"
       only_selected="false" />
  </defs>
  <sodipodi:namedview
     id="base"
     pagecolor="#ffffff"
     bordercolor="#666666"
     borderopacity="1.0"
     inkscape:pageopacity="0.0"
     inkscape:pageshadow="2"
     inkscape:zoom="1.2804741"
     inkscape:cx="233.48583"
     inkscape:cy="259.02801"
     inkscape:document-units="px"
     inkscape:current-layer="layer1"
     showgrid="false"
     units="px"
     showguides="true"
     inkscape:guide-bbox="true"
     inkscape:window-width="1920"
     inkscape:window-height="1052"
     inkscape:window-x="1920"
     inkscape:window-y="0"
     inkscape:window-maximized="1">
    <sodipodi:guide
       position="67.733332,67.733332"
       orientation="1,0"
       id="guide815"
       inkscape:locked="false"
       inkscape:label=""
       inkscape:color="rgb(0,0,255)" />
    <sodipodi:guide
       position="-253.60672,135.25693"
       orientation="0,1"
       id="guide902"
       inkscape:locked="false" />
    <sodipodi:guide
       position="-345.94558,0"
       orientation="0,1"
       id="guide904"
       inkscape:locked="false" />
    <sodipodi:guide
       position="0,254.90729"
       orientation="1,0"
       id="guide906"
       inkscape:locked="false" />
    <sodipodi:guide
       position="135.25692,235.39908"
       orientation="1,0"
       id="guide908"
       inkscape:locked="false" />
    <sodipodi:guide
       position="7.3155786,20.158485"
       orientation="0,1"
       id="guide914"
       inkscape:locked="false" />
  </sodipodi:namedview>
  <metadata
     id="metadata5">
    <rdf:RDF>
      <cc:Work
         rdf:about="">
        <dc:format>image/svg+xml</dc:format>
        <dc:type
           rdf:resource="http://purl.org/dc/dcmitype/StillImage" />
        <dc:title></dc:title>
      </cc:Work>
    </rdf:RDF>
  </metadata>
  <g
     inkscape:label="Layer 1"
     inkscape:groupmode="layer"
     id="layer1"
     transform="translate(0,-161.53331)">
    <path
       id="path918-3"
       style="fill:#ffffff;fill-opacity:1;fill-rule:evenodd;stroke:none;stroke-width:0.26458332px;stroke-linecap:butt;stroke-linejoin:miter;stroke-opacity:1"
       d="m 67.733332,219.61763 39.028108,54.16155 c 1.76883,2.09183 3.81729,2.84367 6.49056,3.06234 h -4.28397 -8.93951 -8.702313 c 2.1147,-0.84469 4.570571,-3.56874 2.978113,-8.01088 L 67.733332,231.64738 Z m 0,26.45781 3.244762,3.90881 3.90829,-3.56361 14.943789,21.15116 c 4.744794,5.96517 -2.249731,9.26972 -6.34328,9.26972 H 67.733332 Z m 0,-26.45782 -39.028107,54.16155 c -1.768827,2.09184 -3.817293,2.84367 -6.49056,3.06235 h 4.283975 8.939506 8.702312 c -2.114701,-0.8447 -4.570571,-3.56875 -2.978113,-8.01089 l 26.570987,-37.18325 z m 0,26.45782 -3.244762,3.9088 -3.90829,-3.56361 -14.943788,21.15117 c -4.744794,5.96516 2.249731,9.26972 6.343279,9.26972 h 15.753561 z" />
    <path
       style="fill:#ffffff;fill-opacity:1;fill-rule:evenodd;stroke:none;stroke-width:0.26458332px;stroke-linecap:butt;stroke-linejoin:miter;stroke-opacity:1"
       d="m 63.075095,225.65608 c -6.607082,-11.10972 -8.408005,-28.26404 -5.488716,-53.31379 -1.826076,7.97733 -9.706445,36.63385 2.642015,61.80674 1.437559,-0.85907 2.846701,-7.04577 2.846701,-8.49295 z"
       id="path1608"
       inkscape:connector-curvature="0"
       sodipodi:nodetypes="cccc" />
    <path
       style="fill:#ffffff;fill-opacity:1;fill-rule:evenodd;stroke:none;stroke-width:0.35305044px;stroke-linecap:butt;stroke-linejoin:miter;stroke-opacity:1"
       d="m 93.410752,185.16097 c -5.738584,7.36243 -28.463603,5.66492 -32.533765,7.81745 -2.01178,1.09253 -1.825195,5.39025 -2.22634,9.71547 3.304723,-9.14894 25.362388,0.12671 34.760105,-17.53292 z"
       id="path1610-3-5-2"
       inkscape:connector-curvature="0"
       sodipodi:nodetypes="cccc" />
    <path
       style="fill:#ffffff;fill-opacity:1;fill-rule:evenodd;stroke:none;stroke-width:0.35305044px;stroke-linecap:butt;stroke-linejoin:miter;stroke-opacity:1"
       d="m 94.281333,193.47597 c -5.738583,7.36244 -28.463601,5.66492 -32.533764,7.81746 -2.011779,1.09253 -1.825194,5.39024 -2.22634,9.71546 3.304724,-9.14894 25.36239,0.12672 34.760104,-17.53292 z"
       id="path1610-3-5-2-3"
       inkscape:connector-curvature="0"
       sodipodi:nodetypes="cccc" />
    <path
       style="fill:#ffffff;fill-opacity:1;fill-rule:evenodd;stroke:none;stroke-width:0.35305044px;stroke-linecap:butt;stroke-linejoin:miter;stroke-opacity:1"
       d="m 93.092158,176.65228 c -5.738578,7.36243 -28.463598,5.66492 -32.53376,7.81746 -2.011779,1.09252 -1.825195,5.39025 -2.226341,9.71546 3.304724,-9.14894 25.36239,0.12672 34.760101,-17.53292 z"
       id="path1610-3-5-2-6"
       inkscape:connector-curvature="0"
       sodipodi:nodetypes="cccc" />
  </g>
</svg>
